
<svg width="151" height="22" viewBox="0 0 151 22" fill="none" xmlns="http://www.w3.org/2000/svg">
<path fill-rule="evenodd" clip-rule="evenodd" d="M4.04861 19.9375H17.9514C19.0483 19.9375 19.9375 19.0483 19.9375 17.9514V4.04861C19.9375 2.95171 19.0483 2.0625 17.9514 2.0625H4.04861C2.95171 2.0625 2.0625 2.95171 2.0625 4.04861V17.9514C2.0625 19.0483 2.95171 19.9375 4.04861 19.9375Z" fill="#8B8B8B"/>
<path fill-rule="evenodd" clip-rule="evenodd" d="M17.4566 17.4546H14.8041V12.9368C14.8041 11.6981 14.3334 11.0059 13.353 11.0059C12.2864 11.0059 11.7292 11.7262 11.7292 12.9368V17.4546H9.17286V8.84816H11.7292V10.0075C11.7292 10.0075 12.4978 8.58522 14.3241 8.58522C16.1497 8.58522 17.4566 9.69999 17.4566 12.0056V17.4546ZM6.12319 7.72121C5.25245 7.72121 4.54688 7.0101 4.54688 6.13307C4.54688 5.25604 5.25245 4.54492 6.12319 4.54492C6.99392 4.54492 7.69908 5.25604 7.69908 6.13307C7.69908 7.0101 6.99392 7.72121 6.12319 7.72121ZM4.80322 17.4546H7.46879V8.84816H4.80322V17.4546Z" fill="#333333"/>
<g clip-path="url(#clip0_2713_10439)">
<path d="M40.4287 18.8213C47.6929 18.8213 51.6661 12.803 51.6661 7.58393C51.6661 7.41299 51.6661 7.24282 51.6546 7.07342C52.4275 6.51434 53.0947 5.82208 53.625 5.02907C52.9042 5.34863 52.1396 5.55809 51.3566 5.65046C52.1811 5.15693 52.7982 4.38059 53.0929 3.46597C52.3177 3.92606 51.4695 4.25027 50.585 4.42462C49.9896 3.79144 49.202 3.37216 48.3442 3.23167C47.4865 3.09118 46.6063 3.23731 45.84 3.64745C45.0736 4.05758 44.4638 4.70886 44.1049 5.5005C43.7459 6.29213 43.6579 7.17999 43.8545 8.02668C42.2843 7.94792 40.7482 7.53984 39.3459 6.82895C37.9436 6.11806 36.7065 5.12024 35.7148 3.90025C35.2098 4.76971 35.0551 5.79897 35.2822 6.77847C35.5094 7.75797 36.1014 8.61406 36.9376 9.17244C36.309 9.15403 35.6941 8.98446 35.145 8.6781V8.72815C35.1452 9.64 35.4609 10.5237 36.0384 11.2293C36.6159 11.935 37.4198 12.4192 38.3135 12.5997C37.7321 12.7583 37.122 12.7815 36.5302 12.6675C36.7827 13.4522 37.2741 14.1384 37.9356 14.6301C38.5972 15.1219 39.3959 15.3946 40.2201 15.4102C39.4012 16.0539 38.4635 16.5298 37.4605 16.8106C36.4576 17.0915 35.4091 17.1719 34.375 17.0472C36.1812 18.2063 38.2827 18.8211 40.4287 18.8182" fill="#8B8B8B"/>
</g>
<path d="M76.7246 10.4203H85.7826C85.9275 10.4203 86 10.4203 86 10.2754V9.98551C86 9.91304 86 9.84058 85.8551 9.84058C81.5797 8.68116 78.2464 5.42029 77.1594 1.14493L76.8696 1H76.6522C76.5797 1 76.5072 1.07246 76.5072 1.21739V10.2754C76.5072 10.3478 76.5072 10.4203 76.6522 10.4203H76.7246ZM76.7246 21H77.0145L77.1594 20.8551C78.3188 16.5797 81.5797 13.2464 85.8551 12.1594L86 11.942V11.7246C86 11.6522 85.9275 11.5072 85.7826 11.5072H76.7246L76.5797 11.7246V20.7826C76.5797 20.9275 76.5797 21 76.7246 21ZM75.058 21H75.2754C75.3478 21 75.4203 20.9275 75.4203 20.7826V11.7246C75.4203 11.6522 75.4203 11.5072 75.2754 11.5072H66.2174C66.0725 11.5072 66 11.6522 66 11.7246V12.0145C66 12.087 66 12.1594 66.1449 12.1594C70.4203 13.2464 73.7536 16.5797 74.8406 20.8551L75.058 21ZM66.2174 10.4203H75.2754C75.3478 10.4203 75.4203 10.4203 75.4203 10.2754V1.21739C75.4203 1.07246 75.4203 1 75.2754 1H74.9855C74.913 1 74.8406 1 74.8406 1.14493C73.6812 5.34783 70.3478 8.75362 66.1449 9.84058L66 10.058V10.2754C66 10.3478 66.0725 10.4203 66.2174 10.4203Z" fill="#8B8B8B"/>
<g clip-path="url(#clip1_2713_10439)">
<path d="M105.938 19.9375C101.008 19.9375 97 15.9318 97 11.0036C97 6.06818 101.008 2.0625 105.938 2.0625C110.867 2.0625 114.875 6.06818 114.875 10.9964C114.875 15.9246 110.867 19.9375 105.938 19.9375ZM113.472 12.22C113.213 12.1362 111.111 11.5139 108.717 11.8915C109.715 14.6286 110.12 16.8686 110.197 17.3303C111.914 16.1768 113.136 14.3449 113.472 12.22ZM108.919 18.036C108.807 17.3649 108.36 15.03 107.292 12.2479C107.278 12.2549 107.257 12.2619 107.243 12.2619C102.935 13.7645 101.392 16.7502 101.252 17.0295C102.544 18.036 104.171 18.6374 105.938 18.6374C106.992 18.6444 108.004 18.4279 108.919 18.036ZM100.268 16.1111C100.442 15.8179 102.537 12.3501 106.475 11.0709C106.573 11.036 106.678 11.0081 106.775 10.9802C106.584 10.5418 106.377 10.1105 106.154 9.68703C102.342 10.8266 98.6409 10.7777 98.3057 10.7707C98.3057 10.8475 98.2987 10.9243 98.2987 11.0014C98.3057 12.9657 99.0458 14.7549 100.268 16.1111ZM98.4663 9.44432C98.8084 9.4513 101.951 9.46526 105.526 8.51426C104.262 6.26396 102.893 4.37647 102.698 4.10137C100.554 5.11047 98.9621 7.08146 98.4663 9.44432ZM104.15 3.58634C105.197 5.0111 106.148 6.50336 106.999 8.05342C109.715 7.03287 110.86 5.49506 111 5.29899C109.605 4.05892 107.804 3.37482 105.938 3.37687C105.336 3.37861 104.736 3.44888 104.15 3.58634ZM111.845 6.17989C111.684 6.39663 110.406 8.03945 107.585 9.19295L108.095 10.2976L108.263 10.6891C110.804 10.368 113.325 10.8847 113.576 10.9338C113.558 9.19812 112.947 7.52079 111.845 6.18017V6.17989Z" fill="#8B8B8B"/>
</g>
<path d="M133.205 3.21094C133.946 3.21094 134.622 3.27693 135.234 3.40755C135.846 3.53817 136.368 3.75266 136.804 4.05102C137.24 4.34938 137.578 4.74536 137.819 5.24033C138.06 5.73531 138.179 6.34578 138.179 7.07311C138.179 7.8582 138.001 8.51266 137.644 9.03651C137.288 9.56036 136.76 9.98934 136.063 10.3234C137.023 10.5998 137.739 11.0838 138.212 11.774C138.685 12.4642 138.922 13.2974 138.922 14.2722C138.922 15.0573 138.769 15.7379 138.464 16.3126C138.159 16.8874 137.748 17.3562 137.231 17.7192C136.714 18.0835 136.125 18.3517 135.464 18.5263C134.798 18.7009 134.112 18.7889 133.425 18.7875H125.875V3.21094H133.205ZM132.769 9.51499C133.379 9.51499 133.881 9.36925 134.274 9.07914C134.668 8.78765 134.864 8.31605 134.863 7.66158C134.863 7.2986 134.797 7.00024 134.666 6.76788C134.536 6.53552 134.361 6.35265 134.142 6.22203C133.924 6.09141 133.674 6.00067 133.39 5.9498C133.099 5.89892 132.803 5.8728 132.506 5.87418H129.301V9.51774L132.769 9.51499ZM132.966 16.1243C133.289 16.1256 133.61 16.0926 133.925 16.0267C134.23 15.9607 134.5 15.852 134.732 15.6994C134.965 15.5468 135.15 15.3392 135.289 15.0779C135.427 14.8167 135.497 14.4812 135.497 14.0743C135.497 13.2754 135.271 12.7034 134.82 12.3625C134.369 12.0201 133.773 11.8496 133.032 11.8496H129.301V16.1256L132.966 16.1243ZM143.231 15.797C143.695 16.248 144.365 16.4735 145.238 16.4735C145.864 16.4735 146.401 16.3168 146.852 16.0047C147.303 15.6925 147.58 15.3612 147.681 15.012H150.408C149.972 16.3649 149.302 17.3315 148.4 17.9131C147.499 18.4946 146.408 18.7861 145.128 18.7861C144.241 18.7861 143.441 18.6445 142.729 18.3613C142.017 18.078 141.413 17.6738 140.918 17.15C140.423 16.6261 140.041 16.0019 139.773 15.2746C139.505 14.5472 139.37 13.747 139.37 12.8753C139.37 12.0325 139.507 11.2474 139.784 10.5201C140.06 9.79272 140.453 9.16438 140.962 8.63366C141.471 8.10294 142.079 7.68496 142.784 7.37972C143.489 7.07449 144.272 6.92187 145.13 6.92187C146.089 6.92187 146.925 7.10749 147.639 7.47872C148.351 7.84995 148.937 8.34767 149.395 8.97326C149.852 9.59886 150.184 10.3111 150.387 11.1113C150.591 11.9115 150.664 12.7474 150.606 13.6205H142.469C142.512 14.6201 142.766 15.3474 143.231 15.797ZM146.733 9.86422C146.361 9.45724 145.798 9.25375 145.042 9.25375C144.547 9.25375 144.135 9.33762 143.81 9.50399C143.482 9.67173 143.221 9.87797 143.024 10.1255C142.828 10.3729 142.69 10.6342 142.611 10.9105C142.531 11.1869 142.483 11.4344 142.469 11.6516H147.508C147.361 10.8679 147.103 10.2712 146.733 9.86422ZM141.938 4.00152H148.234V5.74768H141.938V4.00152Z" fill="#8B8B8B"/>
<defs>
<clipPath id="clip0_2713_10439">
<rect width="19.25" height="19.25" fill="white" transform="translate(34.375 1.375)"/>
</clipPath>
<clipPath id="clip1_2713_10439">
<rect width="17.875" height="17.875" fill="white" transform="translate(97 2.0625)"/>
</clipPath>
</defs>
</svg>
