
<svg width="144" height="32" viewBox="0 0 144 32" fill="none" xmlns="http://www.w3.org/2000/svg">
<rect x="0.5" y="0.5" width="143" height="31" rx="15.5" fill="url(#paint0_radial_2713_10419)"/>
<rect x="0.5" y="0.5" width="143" height="31" rx="15.5" stroke="#5B5B5B" stroke-linecap="round" stroke-dasharray="4 4"/>
<circle cx="16" cy="16" r="4" fill="url(#paint1_radial_2713_10419)"/>
<path d="M24.744 20V19.712C24.744 16.244 29.016 16.532 29.016 14.456C29.016 13.58 28.5 13.052 27.54 13.052C26.484 13.052 25.968 13.592 25.824 14.48H24.732C24.936 13.028 25.908 12.14 27.552 12.14C29.232 12.14 30.096 13.136 30.096 14.444C30.096 16.94 26.28 16.916 25.836 19.16H30.18V20H24.744ZM34.9964 15.26C34.9964 17.036 39.1364 15.572 39.1364 18.2C39.1364 19.388 38.0804 20.144 36.5804 20.144C35.0684 20.144 34.0124 19.424 33.7724 17.924H34.8284C34.9724 18.812 35.6324 19.304 36.6164 19.304C37.5764 19.304 38.0804 18.872 38.0804 18.272C38.0804 16.532 33.9884 17.972 33.9884 15.332C33.9884 14.36 34.7444 13.472 36.3044 13.472C37.6844 13.472 38.7044 14.12 38.9084 15.704H37.8524C37.6964 14.708 37.1444 14.336 36.2444 14.336C35.4524 14.336 34.9964 14.732 34.9964 15.26ZM40.4222 20V11.36H41.4782V20H40.4222ZM45.7747 20.144C43.9507 20.144 42.8587 18.896 42.8587 16.82C42.8587 14.66 43.9867 13.472 45.7747 13.472C47.5987 13.472 48.6907 14.744 48.6907 16.82C48.6907 18.968 47.5627 20.144 45.7747 20.144ZM45.7747 19.232C46.9627 19.232 47.6107 18.38 47.6107 16.82C47.6107 15.272 46.9507 14.384 45.7747 14.384C44.5867 14.384 43.9387 15.248 43.9387 16.82C43.9387 18.356 44.5987 19.232 45.7747 19.232ZM50.2238 18.164V14.468H49.3358V13.628H50.2238V12.164H51.2798V13.628H52.6838V14.468H51.2798V18.164C51.2798 18.932 51.5078 19.292 52.4438 19.292H52.6598V20.048C52.5398 20.108 52.2758 20.144 51.9758 20.144C50.7878 20.144 50.2238 19.508 50.2238 18.164ZM56.1516 20V11.36H57.2076V20H56.1516ZM64.42 17.924C64.072 19.412 63.004 20.144 61.552 20.144C59.704 20.144 58.588 18.896 58.588 16.82C58.588 14.66 59.704 13.472 61.492 13.472C63.292 13.472 64.372 14.708 64.372 16.736V17H59.668C59.728 18.428 60.4 19.232 61.552 19.232C62.452 19.232 63.088 18.8 63.316 17.924H64.42ZM61.492 14.384C60.472 14.384 59.86 15.02 59.704 16.208H63.268C63.124 15.032 62.488 14.384 61.492 14.384ZM65.0292 14.468V13.628H65.9172V13.196C65.9172 11.852 66.4692 11.216 67.6452 11.216C67.9092 11.216 68.1252 11.264 68.2332 11.312V12.068H68.1252C67.2012 12.068 66.9732 12.428 66.9732 13.196V13.628H68.2332V14.468H66.9732V20H65.9172V14.468H65.0292ZM69.2527 18.164V14.468H68.3647V13.628H69.2527V12.164H70.3087V13.628H71.7127V14.468H70.3087V18.164C70.3087 18.932 70.5367 19.292 71.4727 19.292H71.6887V20.048C71.5687 20.108 71.3047 20.144 71.0047 20.144C69.8167 20.144 69.2527 19.508 69.2527 18.164ZM75.3245 18.164V14.468H74.4365V13.628H75.3245V12.164H76.3805V13.628H77.7845V14.468H76.3805V18.164C76.3805 18.932 76.6085 19.292 77.5445 19.292H77.7605V20.048C77.6405 20.108 77.3765 20.144 77.0765 20.144C75.8885 20.144 75.3245 19.508 75.3245 18.164ZM78.8198 20V11.36H79.8758V14.492C80.3078 13.82 81.0038 13.472 81.8438 13.472C83.1998 13.472 84.0038 14.264 84.0038 15.74V20H82.9478V15.956C82.9478 14.996 82.5158 14.372 81.5558 14.372C80.4998 14.372 79.8758 15.32 79.8758 16.232V20H78.8198ZM85.717 12.776V11.36H86.773V12.776H85.717ZM85.717 20V13.628H86.773V20H85.717ZM89.2575 15.26C89.2575 17.036 93.3975 15.572 93.3975 18.2C93.3975 19.388 92.3415 20.144 90.8415 20.144C89.3295 20.144 88.2735 19.424 88.0335 17.924H89.0895C89.2335 18.812 89.8935 19.304 90.8775 19.304C91.8375 19.304 92.3415 18.872 92.3415 18.272C92.3415 16.532 88.2495 17.972 88.2495 15.332C88.2495 14.36 89.0055 13.472 90.5655 13.472C91.9455 13.472 92.9655 14.12 93.1695 15.704H92.1135C91.9575 14.708 91.4055 14.336 90.5055 14.336C89.7135 14.336 89.2575 14.732 89.2575 15.26ZM97.1156 20V13.628H98.1716V14.444C98.5796 13.796 99.2156 13.472 99.9956 13.472C100.872 13.472 101.508 13.856 101.808 14.6C102.228 13.856 102.924 13.472 103.776 13.472C105.072 13.472 105.852 14.264 105.852 15.74V20H104.796V15.956C104.796 14.996 104.412 14.372 103.548 14.372C102.588 14.372 102.012 15.32 102.012 16.232V20H100.956V15.956C100.956 14.996 100.572 14.372 99.7076 14.372C98.7476 14.372 98.1716 15.32 98.1716 16.232V20H97.1156ZM110.156 20.144C108.332 20.144 107.24 18.896 107.24 16.82C107.24 14.66 108.368 13.472 110.156 13.472C111.98 13.472 113.072 14.744 113.072 16.82C113.072 18.968 111.944 20.144 110.156 20.144ZM110.156 19.232C111.344 19.232 111.992 18.38 111.992 16.82C111.992 15.272 111.332 14.384 110.156 14.384C108.968 14.384 108.32 15.248 108.32 16.82C108.32 18.356 108.98 19.232 110.156 19.232ZM114.461 20V13.628H115.517V14.492C115.949 13.82 116.645 13.472 117.485 13.472C118.841 13.472 119.645 14.264 119.645 15.74V20H118.589V15.956C118.589 14.996 118.157 14.372 117.197 14.372C116.141 14.372 115.517 15.32 115.517 16.232V20H114.461ZM121.502 18.164V14.468H120.614V13.628H121.502V12.164H122.558V13.628H123.962V14.468H122.558V18.164C122.558 18.932 122.786 19.292 123.722 19.292H123.938V20.048C123.818 20.108 123.554 20.144 123.254 20.144C122.066 20.144 121.502 19.508 121.502 18.164ZM124.997 20V11.36H126.053V14.492C126.485 13.82 127.181 13.472 128.021 13.472C129.377 13.472 130.181 14.264 130.181 15.74V20H129.125V15.956C129.125 14.996 128.693 14.372 127.733 14.372C126.677 14.372 126.053 15.32 126.053 16.232V20H124.997Z" fill="#B8B8B8"/>
<defs>
<radialGradient id="paint0_radial_2713_10419" cx="0" cy="0" r="1" gradientTransform="matrix(72 12.3258 -2.40738 16 72 16)" gradientUnits="userSpaceOnUse">
<stop stop-color="#2B2B2B"/>
<stop offset="1" stop-color="#343434"/>
</radialGradient>
<radialGradient id="paint1_radial_2713_10419" cx="0" cy="0" r="1" gradientUnits="userSpaceOnUse" gradientTransform="translate(16 16) rotate(90) scale(4)">
<stop stop-color="#4DCDFF"/>
<stop offset="1" stop-color="#0791C8"/>
</radialGradient>
</defs>
</svg>
