
<svg width="129" height="47" viewBox="0 0 129 47" fill="none" xmlns="http://www.w3.org/2000/svg">
<rect x="0.968177" y="0.968177" width="126.191" height="44.5361" rx="22.2681" fill="#FF6E6E"/>
<rect x="0.968177" y="0.968177" width="126.191" height="44.5361" rx="22.2681" stroke="url(#paint0_linear_2713_10079)" stroke-width="1.93635"/>
<path d="M23.9129 20.1846V18.7258H30.5223V20.1846H28.1212V27.7363H26.3139V20.1846H23.9129ZM33.7773 24.1734V27.7363H31.97V20.5847H33.7773V21.6949C34.2291 20.9591 34.9778 20.4815 35.9718 20.4815V22.3791H35.4942C34.4227 22.3791 33.7773 22.7922 33.7773 24.1734ZM40.3647 25.5805L42.2365 20.5847H44.16L39.7322 31.1185H37.8087L39.3578 27.5556L36.492 20.5847H38.5187L40.3647 25.5805ZM54.5872 27.7363L53.9934 26.0194H50.4047L49.8109 27.7363H47.9133L51.1534 18.7129H53.2576L56.4978 27.7363H54.5872ZM53.5029 24.5736L52.1991 20.8042L50.8952 24.5736H53.5029ZM58.122 25.516V22.0693H57.27V20.5847H58.122V18.8162H59.9422V20.5847H61.5429V22.0693H59.9422V25.5289C59.9422 26.0065 60.1358 26.2131 60.7038 26.2131H61.5429V27.7363H60.4069C59.0385 27.7363 58.122 27.1554 58.122 25.516ZM72.9763 27.7363V23.7862C72.9763 22.6502 72.3438 22.0564 71.3885 22.0564C70.4203 22.0564 69.7878 22.6502 69.7878 23.7862V27.7363H67.9805V23.7862C67.9805 22.6502 67.348 22.0564 66.3927 22.0564C65.4116 22.0564 64.7791 22.6502 64.7791 23.7862V27.7363H62.9718V20.5847H64.7791V21.4496C65.2309 20.8558 65.9925 20.4815 66.8833 20.4815C67.9934 20.4815 68.91 20.9591 69.4005 21.8498C69.8653 21.0365 70.8076 20.4815 71.8532 20.4815C73.5701 20.4815 74.7836 21.5658 74.7836 23.5409V27.7363H72.9763ZM83.534 24.1605C83.534 26.4067 81.8816 27.8525 79.8033 27.8525C77.7378 27.8525 76.1758 26.4067 76.1758 24.1605C76.1758 21.9015 77.7895 20.4685 79.8549 20.4685C81.9204 20.4685 83.534 21.9015 83.534 24.1605ZM78.0089 24.1605C78.0089 25.5805 78.8351 26.2776 79.8033 26.2776C80.7586 26.2776 81.6751 25.5805 81.6751 24.1605C81.6751 22.7276 80.7844 22.0434 79.8291 22.0434C78.8738 22.0434 78.0089 22.7276 78.0089 24.1605Z" fill="white"/>
<path d="M97.1447 16.9434C95.9 16.9434 94.6833 17.3124 93.6484 18.0039C92.6135 18.6954 91.8069 19.6783 91.3306 20.8282C90.8543 21.9781 90.7297 23.2435 90.9725 24.4642C91.2153 25.685 91.8147 26.8063 92.6948 27.6864C93.5749 28.5665 94.6962 29.1659 95.917 29.4087C97.1377 29.6516 98.4031 29.5269 99.553 29.0506C100.703 28.5743 101.686 27.7677 102.377 26.7328C103.069 25.6979 103.438 24.4812 103.438 23.2365C103.436 21.568 102.773 19.9683 101.593 18.7885C100.413 17.6087 98.8132 16.9451 97.1447 16.9434ZM99.5652 24.2047C99.5652 24.3331 99.5142 24.4562 99.4234 24.547C99.3326 24.6378 99.2095 24.6888 99.0811 24.6888C98.9527 24.6888 98.8295 24.6378 98.7388 24.547C98.648 24.4562 98.597 24.3331 98.597 24.2047V22.4686L95.5509 25.5154C95.5059 25.5603 95.4525 25.596 95.3937 25.6203C95.335 25.6447 95.272 25.6572 95.2084 25.6572C95.1448 25.6572 95.0818 25.6447 95.023 25.6203C94.9642 25.596 94.9108 25.5603 94.8659 25.5154C94.8209 25.4704 94.7852 25.417 94.7609 25.3582C94.7365 25.2995 94.724 25.2365 94.724 25.1729C94.724 25.1093 94.7365 25.0463 94.7609 24.9875C94.7852 24.9287 94.8209 24.8753 94.8659 24.8304L97.9126 21.7842H96.1765C96.0481 21.7842 95.925 21.7332 95.8342 21.6425C95.7435 21.5517 95.6924 21.4285 95.6924 21.3002C95.6924 21.1718 95.7435 21.0486 95.8342 20.9579C95.925 20.8671 96.0481 20.8161 96.1765 20.8161H99.0811C99.2095 20.8161 99.3326 20.8671 99.4234 20.9579C99.5142 21.0486 99.5652 21.1718 99.5652 21.3002V24.2047Z" fill="white"/>
<defs>
<linearGradient id="paint0_linear_2713_10079" x1="2.25576" y1="-2.9051e-08" x2="142.342" y2="21.813" gradientUnits="userSpaceOnUse">
<stop stop-color="#F12121"/>
<stop offset="1" stop-color="#FFC107"/>
</linearGradient>
</defs>
</svg>
