
<svg width="73" height="23" viewBox="0 0 73 23" fill="none" xmlns="http://www.w3.org/2000/svg">
<rect x="0.5" y="0.5" width="72" height="22" rx="11" fill="black" fill-opacity="0.01"/>
<rect x="0.5" y="0.5" width="72" height="22" rx="11" stroke="#393939" stroke-linecap="round"/>
<path d="M10.276 9.332C10.276 11.636 15.28 9.848 15.28 13.196C15.28 14.768 14.008 15.644 12.268 15.644C10.516 15.644 9.316 14.84 8.956 13.196H10.108C10.372 14.168 11.104 14.696 12.28 14.696C13.504 14.696 14.152 14.156 14.152 13.34C14.152 10.844 9.148 12.704 9.148 9.404C9.148 8.228 10.132 7.196 11.932 7.196C13.504 7.196 14.764 7.952 15.064 9.692H13.9C13.648 8.612 12.952 8.144 11.908 8.144C10.876 8.144 10.276 8.612 10.276 9.332ZM22.0785 13.424C21.7305 14.912 20.6625 15.644 19.2105 15.644C17.3625 15.644 16.2465 14.396 16.2465 12.32C16.2465 10.16 17.3625 8.972 19.1505 8.972C20.9505 8.972 22.0305 10.208 22.0305 12.236V12.5H17.3265C17.3865 13.928 18.0585 14.732 19.2105 14.732C20.1105 14.732 20.7465 14.3 20.9745 13.424H22.0785ZM19.1505 9.884C18.1305 9.884 17.5185 10.52 17.3625 11.708H20.9265C20.7825 10.532 20.1465 9.884 19.1505 9.884ZM28.9457 13.424C28.5977 14.912 27.5297 15.644 26.0777 15.644C24.2297 15.644 23.1137 14.396 23.1137 12.32C23.1137 10.16 24.2297 8.972 26.0177 8.972C27.8177 8.972 28.8977 10.208 28.8977 12.236V12.5H24.1937C24.2537 13.928 24.9257 14.732 26.0777 14.732C26.9777 14.732 27.6137 14.3 27.8417 13.424H28.9457ZM26.0177 9.884C24.9977 9.884 24.3857 10.52 24.2297 11.708H27.7937C27.6497 10.532 27.0137 9.884 26.0177 9.884ZM32.7072 15.5V6.86H33.7632V15.5H32.7072ZM35.4377 8.276V6.86H36.4937V8.276H35.4377ZM35.4377 15.5V9.128H36.4937V15.5H35.4377ZM39.7641 15.5L37.3881 9.128H38.5281L40.2921 14.072L40.4481 14.624L40.6041 14.072L42.3681 9.128H43.4361L41.0601 15.5H39.7641ZM49.8402 13.424C49.4922 14.912 48.4242 15.644 46.9722 15.644C45.1242 15.644 44.0082 14.396 44.0082 12.32C44.0082 10.16 45.1242 8.972 46.9122 8.972C48.7122 8.972 49.7922 10.208 49.7922 12.236V12.5H45.0882C45.1482 13.928 45.8202 14.732 46.9722 14.732C47.8722 14.732 48.5082 14.3 48.7362 13.424H49.8402ZM46.9122 9.884C45.8922 9.884 45.2802 10.52 45.1242 11.708H48.6882C48.5442 10.532 47.9082 9.884 46.9122 9.884Z" fill="white"/>
<path d="M56 14L61 9" stroke="white" stroke-linecap="round" stroke-linejoin="round"/>
<path d="M56 9H61V14" stroke="white" stroke-linecap="round" stroke-linejoin="round"/>
</svg>
