
<svg width="398" height="175" viewBox="0 0 398 175" fill="none" xmlns="http://www.w3.org/2000/svg">
<g filter="url(#filter0_d_2713_10494)">
<rect x="32" y="50.5" width="109" height="25" fill="url(#paint0_radial_2713_10494)" shape-rendering="crispEdges"/>
<rect x="32" y="50.5" width="109" height="25" stroke="#5B5B5B" stroke-linecap="round" stroke-linejoin="round" stroke-dasharray="4 4" shape-rendering="crispEdges"/>
<path d="M44.78 66.5V59.7H46.05L48.14 64.69L48.34 65.3L48.55 64.69L50.63 59.7H51.86V66.5H50.94V60.81L50.46 62.15L48.64 66.5H47.99L46.17 62.14L45.7 60.84V66.5H44.78ZM55.5026 66.62C53.9826 66.62 53.0726 65.58 53.0726 63.85C53.0726 62.05 54.0126 61.06 55.5026 61.06C57.0226 61.06 57.9326 62.12 57.9326 63.85C57.9326 65.64 56.9926 66.62 55.5026 66.62ZM55.5026 65.86C56.4926 65.86 57.0326 65.15 57.0326 63.85C57.0326 62.56 56.4826 61.82 55.5026 61.82C54.5126 61.82 53.9726 62.54 53.9726 63.85C53.9726 65.13 54.5226 65.86 55.5026 65.86ZM59.9452 66.5H59.0652V59.3H59.9452V61.85C60.2952 61.35 60.8052 61.06 61.4352 61.06C62.8452 61.06 63.6952 62.1 63.6952 63.83C63.6952 65.63 62.8252 66.62 61.4352 66.62C60.8052 66.62 60.2952 66.36 59.9452 65.87V66.5ZM61.3752 61.82C60.4452 61.82 59.9452 62.53 59.9452 63.83C59.9452 65.12 60.4652 65.86 61.3752 65.86C62.2952 65.86 62.7952 65.14 62.7952 63.83C62.7952 62.55 62.2752 61.82 61.3752 61.82ZM64.827 60.48V59.3H65.707V60.48H64.827ZM64.827 66.5V61.19H65.707V66.5H64.827ZM67.1023 66.5V59.3H67.9823V66.5H67.1023ZM73.9677 64.77C73.6777 66.01 72.7877 66.62 71.5777 66.62C70.0377 66.62 69.1077 65.58 69.1077 63.85C69.1077 62.05 70.0377 61.06 71.5277 61.06C73.0277 61.06 73.9277 62.09 73.9277 63.78V64H70.0077C70.0577 65.19 70.6177 65.86 71.5777 65.86C72.3277 65.86 72.8577 65.5 73.0477 64.77H73.9677ZM71.5277 61.82C70.6777 61.82 70.1677 62.35 70.0377 63.34H73.0077C72.8877 62.36 72.3577 61.82 71.5277 61.82ZM81.7496 66.5L81.1096 64.87H77.8496L77.2096 66.5H76.2996L78.9696 59.7H80.0296L82.7096 66.5H81.7496ZM79.2796 61.19L78.1296 64.13H80.8296L79.6796 61.19L79.4796 60.59L79.2796 61.19ZM84.4963 68.7H83.6163V61.19H84.4963V61.85C84.8463 61.35 85.3563 61.06 85.9863 61.06C87.3963 61.06 88.2463 62.1 88.2463 63.83C88.2463 65.63 87.3763 66.62 85.9863 66.62C85.3563 66.62 84.8463 66.36 84.4963 65.87V68.7ZM85.9263 61.82C84.9963 61.82 84.4963 62.53 84.4963 63.83C84.4963 65.12 85.0163 65.86 85.9263 65.86C86.8463 65.86 87.3463 65.14 87.3463 63.83C87.3463 62.55 86.8263 61.82 85.9263 61.82ZM90.2677 68.7H89.3877V61.19H90.2677V61.85C90.6177 61.35 91.1277 61.06 91.7577 61.06C93.1677 61.06 94.0177 62.1 94.0177 63.83C94.0177 65.63 93.1477 66.62 91.7577 66.62C91.1277 66.62 90.6177 66.36 90.2677 65.87V68.7ZM91.6977 61.82C90.7677 61.82 90.2677 62.53 90.2677 63.83C90.2677 65.12 90.7877 65.86 91.6977 65.86C92.6177 65.86 93.1177 65.14 93.1177 63.83C93.1177 62.55 92.5977 61.82 91.6977 61.82ZM97.2312 66.5V59.7H99.4512C101.561 59.7 102.881 60.98 102.881 63.11C102.881 65.24 101.561 66.5 99.4512 66.5H97.2312ZM99.4512 65.75C101.011 65.75 101.941 64.77 101.941 63.11C101.941 61.43 101.011 60.45 99.4512 60.45H98.1512V65.75H99.4512ZM108.714 64.77C108.424 66.01 107.534 66.62 106.324 66.62C104.784 66.62 103.854 65.58 103.854 63.85C103.854 62.05 104.784 61.06 106.274 61.06C107.774 61.06 108.674 62.09 108.674 63.78V64H104.754C104.804 65.19 105.364 65.86 106.324 65.86C107.074 65.86 107.604 65.5 107.794 64.77H108.714ZM106.274 61.82C105.424 61.82 104.914 62.35 104.784 63.34H107.754C107.634 62.36 107.104 61.82 106.274 61.82ZM110.496 62.55C110.496 64.03 113.946 62.81 113.946 65C113.946 65.99 113.066 66.62 111.816 66.62C110.556 66.62 109.676 66.02 109.476 64.77H110.356C110.476 65.51 111.026 65.92 111.846 65.92C112.646 65.92 113.066 65.56 113.066 65.06C113.066 63.61 109.656 64.81 109.656 62.61C109.656 61.8 110.286 61.06 111.586 61.06C112.736 61.06 113.586 61.6 113.756 62.92H112.876C112.746 62.09 112.286 61.78 111.536 61.78C110.876 61.78 110.496 62.11 110.496 62.55ZM114.993 60.48V59.3H115.873V60.48H114.993ZM114.993 66.5V61.19H115.873V66.5H114.993ZM119.158 66.54C117.808 66.54 116.998 65.51 116.998 63.81C116.998 62.03 117.828 61.06 119.158 61.06C119.868 61.06 120.398 61.31 120.748 61.77V61.19H121.628V66.66C121.628 68.14 120.678 68.83 119.458 68.83C118.208 68.83 117.328 68.23 117.138 67.02H118.018C118.128 67.72 118.678 68.1 119.448 68.1C120.228 68.1 120.748 67.68 120.748 66.69V65.78C120.378 66.28 119.838 66.54 119.158 66.54ZM119.318 65.78C120.248 65.78 120.748 65.08 120.748 63.8C120.748 62.55 120.228 61.82 119.318 61.82C118.398 61.82 117.898 62.52 117.898 63.81C117.898 65.06 118.408 65.78 119.318 65.78ZM123.04 66.5V61.19H123.92V61.91C124.28 61.35 124.86 61.06 125.56 61.06C126.69 61.06 127.36 61.72 127.36 62.95V66.5H126.48V63.13C126.48 62.33 126.12 61.81 125.32 61.81C124.44 61.81 123.92 62.6 123.92 63.36V66.5H123.04Z" fill="#B8B8B8"/>
</g>
<g filter="url(#filter1_d_2713_10494)">
<rect x="151" y="50.5" width="84" height="25" fill="url(#paint1_radial_2713_10494)" shape-rendering="crispEdges"/>
<rect x="151" y="50.5" width="84" height="25" stroke="#5B5B5B" stroke-linecap="round" stroke-linejoin="round" stroke-dasharray="4 4" shape-rendering="crispEdges"/>
<path d="M169.13 63.91C169.13 65.59 168.09 66.62 166.42 66.62C164.74 66.62 163.7 65.59 163.7 63.91V59.7H164.63V63.91C164.63 65.14 165.3 65.88 166.42 65.88C167.54 65.88 168.21 65.13 168.21 63.91V59.7H169.13V63.91ZM170.606 66.5V59.7H171.526V66.5H170.606ZM172.307 66.5L174.807 59.7H175.687L173.187 66.5H172.307ZM181.816 63.91C181.816 65.59 180.776 66.62 179.106 66.62C177.426 66.62 176.386 65.59 176.386 63.91V59.7H177.316V63.91C177.316 65.14 177.986 65.88 179.106 65.88C180.226 65.88 180.896 65.13 180.896 63.91V59.7H181.816V63.91ZM187.672 66.5L185.972 64.14L185.692 63.71L185.412 64.14L183.722 66.5H182.732L185.212 62.99L182.912 59.7H183.982L185.482 61.76L185.792 62.25L186.102 61.76L187.572 59.7H188.562L186.272 62.97L188.742 66.5H187.672ZM191.739 66.5V59.7H193.959C196.069 59.7 197.389 60.98 197.389 63.11C197.389 65.24 196.069 66.5 193.959 66.5H191.739ZM193.959 65.75C195.519 65.75 196.449 64.77 196.449 63.11C196.449 61.43 195.519 60.45 193.959 60.45H192.659V65.75H193.959ZM203.222 64.77C202.932 66.01 202.042 66.62 200.832 66.62C199.292 66.62 198.362 65.58 198.362 63.85C198.362 62.05 199.292 61.06 200.782 61.06C202.282 61.06 203.182 62.09 203.182 63.78V64H199.262C199.312 65.19 199.872 65.86 200.832 65.86C201.582 65.86 202.112 65.5 202.302 64.77H203.222ZM200.782 61.82C199.932 61.82 199.422 62.35 199.292 63.34H202.262C202.142 62.36 201.612 61.82 200.782 61.82ZM205.004 62.55C205.004 64.03 208.454 62.81 208.454 65C208.454 65.99 207.574 66.62 206.324 66.62C205.064 66.62 204.184 66.02 203.984 64.77H204.864C204.984 65.51 205.534 65.92 206.354 65.92C207.154 65.92 207.574 65.56 207.574 65.06C207.574 63.61 204.164 64.81 204.164 62.61C204.164 61.8 204.794 61.06 206.094 61.06C207.244 61.06 208.094 61.6 208.264 62.92H207.384C207.254 62.09 206.794 61.78 206.044 61.78C205.384 61.78 205.004 62.11 205.004 62.55ZM209.501 60.48V59.3H210.381V60.48H209.501ZM209.501 66.5V61.19H210.381V66.5H209.501ZM213.666 66.54C212.316 66.54 211.506 65.51 211.506 63.81C211.506 62.03 212.336 61.06 213.666 61.06C214.376 61.06 214.906 61.31 215.256 61.77V61.19H216.136V66.66C216.136 68.14 215.186 68.83 213.966 68.83C212.716 68.83 211.836 68.23 211.646 67.02H212.526C212.636 67.72 213.186 68.1 213.956 68.1C214.736 68.1 215.256 67.68 215.256 66.69V65.78C214.886 66.28 214.346 66.54 213.666 66.54ZM213.826 65.78C214.756 65.78 215.256 65.08 215.256 63.8C215.256 62.55 214.736 61.82 213.826 61.82C212.906 61.82 212.406 62.52 212.406 63.81C212.406 65.06 212.916 65.78 213.826 65.78ZM217.548 66.5V61.19H218.428V61.91C218.788 61.35 219.368 61.06 220.068 61.06C221.198 61.06 221.868 61.72 221.868 62.95V66.5H220.988V63.13C220.988 62.33 220.628 61.81 219.828 61.81C218.948 61.81 218.428 62.6 218.428 63.36V66.5H217.548Z" fill="#B8B8B8"/>
</g>
<g filter="url(#filter2_d_2713_10494)">
<rect x="245" y="50.5" width="87" height="25" fill="url(#paint2_radial_2713_10494)" shape-rendering="crispEdges"/>
<rect x="245" y="50.5" width="87" height="25" stroke="#5B5B5B" stroke-linecap="round" stroke-linejoin="round" stroke-dasharray="4 4" shape-rendering="crispEdges"/>
<path d="M257.78 66.5V59.7H260.17C261.57 59.7 262.47 60.4 262.47 61.51C262.47 62.16 262.12 62.68 261.47 62.93C262.36 63.16 262.84 63.78 262.84 64.59C262.84 65.8 261.96 66.5 260.51 66.5H257.78ZM260.15 60.44H258.7V62.65H260.13C261.01 62.65 261.52 62.21 261.52 61.56C261.52 60.87 261 60.44 260.15 60.44ZM260.35 63.39H258.7V65.76H260.49C261.36 65.76 261.9 65.29 261.9 64.57C261.9 63.85 261.31 63.39 260.35 63.39ZM263.97 66.5V61.19H264.85V62.01C265.21 61.36 265.78 61.06 266.42 61.06C266.63 61.06 266.82 61.11 266.92 61.19V61.98C266.77 61.93 266.58 61.91 266.37 61.91C265.31 61.91 264.85 62.57 264.85 63.53V66.5H263.97ZM268.412 62.92H267.532C267.702 61.75 268.472 61.06 269.772 61.06C271.192 61.06 271.882 61.89 271.882 63.13V65.22C271.882 65.83 271.932 66.21 272.072 66.5H271.142C271.042 66.29 271.012 65.98 271.002 65.66C270.552 66.33 269.832 66.62 269.192 66.62C268.092 66.62 267.352 66.11 267.352 65.1C267.352 64.37 267.752 63.84 268.532 63.58C269.252 63.34 269.982 63.28 271.002 63.27V63.15C271.002 62.29 270.602 61.82 269.692 61.82C268.932 61.82 268.522 62.24 268.412 62.92ZM268.252 65.08C268.252 65.57 268.662 65.86 269.282 65.86C270.262 65.86 271.002 65.09 271.002 64.18V63.93C268.742 63.95 268.252 64.43 268.252 65.08ZM273.325 66.5V61.19H274.205V61.91C274.565 61.35 275.145 61.06 275.845 61.06C276.975 61.06 277.645 61.72 277.645 62.95V66.5H276.765V63.13C276.765 62.33 276.405 61.81 275.605 61.81C274.725 61.81 274.205 62.6 274.205 63.36V66.5H273.325ZM281.038 66.62C279.628 66.62 278.778 65.58 278.778 63.85C278.778 62.05 279.648 61.06 281.038 61.06C281.668 61.06 282.178 61.32 282.528 61.81V59.3H283.408V66.5H282.528V65.83C282.178 66.33 281.668 66.62 281.038 66.62ZM281.098 65.86C282.028 65.86 282.528 65.15 282.528 63.85C282.528 62.56 282.008 61.82 281.098 61.82C280.178 61.82 279.678 62.54 279.678 63.85C279.678 65.13 280.198 65.86 281.098 65.86ZM286.891 66.5V59.7H287.811V66.5H286.891ZM291.282 66.62C289.872 66.62 289.022 65.58 289.022 63.85C289.022 62.05 289.892 61.06 291.282 61.06C291.912 61.06 292.422 61.32 292.772 61.81V59.3H293.652V66.5H292.772V65.83C292.422 66.33 291.912 66.62 291.282 66.62ZM291.342 65.86C292.272 65.86 292.772 65.15 292.772 63.85C292.772 62.56 292.252 61.82 291.342 61.82C290.422 61.82 289.922 62.54 289.922 63.85C289.922 65.13 290.442 65.86 291.342 65.86ZM299.644 64.77C299.354 66.01 298.464 66.62 297.254 66.62C295.714 66.62 294.784 65.58 294.784 63.85C294.784 62.05 295.714 61.06 297.204 61.06C298.704 61.06 299.604 62.09 299.604 63.78V64H295.684C295.734 65.19 296.294 65.86 297.254 65.86C298.004 65.86 298.534 65.5 298.724 64.77H299.644ZM297.204 61.82C296.354 61.82 295.844 62.35 295.714 63.34H298.684C298.564 62.36 298.034 61.82 297.204 61.82ZM300.776 66.5V61.19H301.656V61.91C302.016 61.35 302.596 61.06 303.296 61.06C304.426 61.06 305.096 61.72 305.096 62.95V66.5H304.216V63.13C304.216 62.33 303.856 61.81 303.056 61.81C302.176 61.81 301.656 62.6 301.656 63.36V66.5H300.776ZM306.619 64.97V61.89H305.879V61.19H306.619V59.97H307.499V61.19H308.669V61.89H307.499V64.97C307.499 65.61 307.689 65.91 308.469 65.91H308.649V66.54C308.549 66.59 308.329 66.62 308.079 66.62C307.089 66.62 306.619 66.09 306.619 64.97ZM309.507 60.48V59.3H310.387V60.48H309.507ZM309.507 66.5V61.19H310.387V66.5H309.507ZM311.902 64.97V61.89H311.162V61.19H311.902V59.97H312.782V61.19H313.952V61.89H312.782V64.97C312.782 65.61 312.972 65.91 313.752 65.91H313.932V66.54C313.832 66.59 313.612 66.62 313.362 66.62C312.372 66.62 311.902 66.09 311.902 64.97ZM315.03 68.82C314.83 68.82 314.62 68.77 314.51 68.74V68.06H314.78C315.43 68.06 315.61 67.93 316.13 66.74L316.31 66.33L314.14 61.19H315.09L316.53 64.7L316.77 65.41L317.01 64.7L318.41 61.19H319.31L316.83 67.2C316.3 68.48 315.95 68.82 315.03 68.82Z" fill="#B8B8B8"/>
</g>
<g filter="url(#filter3_d_2713_10494)">
<rect x="32" y="91.5" width="120" height="25" fill="url(#paint3_radial_2713_10494)" shape-rendering="crispEdges"/>
<rect x="32" y="91.5" width="120" height="25" stroke="#5B5B5B" stroke-linecap="round" stroke-linejoin="round" stroke-dasharray="4 4" shape-rendering="crispEdges"/>
<path d="M44.78 107.5V100.7H49.39V101.45H45.7V103.78H49.02V104.53H45.7V107.5H44.78ZM50.2957 107.5V102.19H51.1757V103.01C51.5357 102.36 52.1057 102.06 52.7457 102.06C52.9557 102.06 53.1457 102.11 53.2457 102.19V102.98C53.0957 102.93 52.9057 102.91 52.6957 102.91C51.6357 102.91 51.1757 103.57 51.1757 104.53V107.5H50.2957ZM54.7385 103.92H53.8585C54.0285 102.75 54.7985 102.06 56.0985 102.06C57.5185 102.06 58.2085 102.89 58.2085 104.13V106.22C58.2085 106.83 58.2585 107.21 58.3985 107.5H57.4685C57.3685 107.29 57.3385 106.98 57.3285 106.66C56.8785 107.33 56.1585 107.62 55.5185 107.62C54.4185 107.62 53.6785 107.11 53.6785 106.1C53.6785 105.37 54.0785 104.84 54.8585 104.58C55.5785 104.34 56.3085 104.28 57.3285 104.27V104.15C57.3285 103.29 56.9285 102.82 56.0185 102.82C55.2585 102.82 54.8485 103.24 54.7385 103.92ZM54.5785 106.08C54.5785 106.57 54.9885 106.86 55.6085 106.86C56.5885 106.86 57.3285 106.09 57.3285 105.18V104.93C55.0685 104.95 54.5785 105.43 54.5785 106.08ZM59.6512 107.5V102.19H60.5312V102.87C60.8712 102.33 61.4012 102.06 62.0512 102.06C62.7812 102.06 63.3112 102.38 63.5612 103C63.9112 102.38 64.4912 102.06 65.2012 102.06C66.2812 102.06 66.9312 102.72 66.9312 103.95V107.5H66.0512V104.13C66.0512 103.33 65.7312 102.81 65.0112 102.81C64.2112 102.81 63.7312 103.6 63.7312 104.36V107.5H62.8512V104.13C62.8512 103.33 62.5312 102.81 61.8112 102.81C61.0112 102.81 60.5312 103.6 60.5312 104.36V107.5H59.6512ZM72.9228 105.77C72.6328 107.01 71.7428 107.62 70.5328 107.62C68.9928 107.62 68.0628 106.58 68.0628 104.85C68.0628 103.05 68.9928 102.06 70.4828 102.06C71.9828 102.06 72.8828 103.09 72.8828 104.78V105H68.9628C69.0128 106.19 69.5728 106.86 70.5328 106.86C71.2828 106.86 71.8128 106.5 72.0028 105.77H72.9228ZM70.4828 102.82C69.6328 102.82 69.1228 103.35 68.9928 104.34H71.9628C71.8428 103.36 71.3128 102.82 70.4828 102.82ZM74.0555 107.5V102.19H74.9355V103.01C75.2955 102.36 75.8655 102.06 76.5055 102.06C76.7155 102.06 76.9055 102.11 77.0055 102.19V102.98C76.8555 102.93 76.6655 102.91 76.4555 102.91C75.3955 102.91 74.9355 103.57 74.9355 104.53V107.5H74.0555ZM79.8679 107.5V100.7H82.0879C84.1979 100.7 85.5179 101.98 85.5179 104.11C85.5179 106.24 84.1979 107.5 82.0879 107.5H79.8679ZM82.0879 106.75C83.6479 106.75 84.5779 105.77 84.5779 104.11C84.5779 102.43 83.6479 101.45 82.0879 101.45H80.7879V106.75H82.0879ZM91.3505 105.77C91.0605 107.01 90.1705 107.62 88.9605 107.62C87.4205 107.62 86.4905 106.58 86.4905 104.85C86.4905 103.05 87.4205 102.06 88.9105 102.06C90.4105 102.06 91.3105 103.09 91.3105 104.78V105H87.3905C87.4405 106.19 88.0005 106.86 88.9605 106.86C89.7105 106.86 90.2405 106.5 90.4305 105.77H91.3505ZM88.9105 102.82C88.0605 102.82 87.5505 103.35 87.4205 104.34H90.3905C90.2705 103.36 89.7405 102.82 88.9105 102.82ZM93.7155 107.5L91.7355 102.19H92.6855L94.1555 106.31L94.2855 106.77L94.4155 106.31L95.8855 102.19H96.7755L94.7955 107.5H93.7155ZM102.112 105.77C101.822 107.01 100.932 107.62 99.7223 107.62C98.1823 107.62 97.2523 106.58 97.2523 104.85C97.2523 103.05 98.1823 102.06 99.6723 102.06C101.172 102.06 102.072 103.09 102.072 104.78V105H98.1523C98.2023 106.19 98.7623 106.86 99.7223 106.86C100.472 106.86 101.002 106.5 101.192 105.77H102.112ZM99.6723 102.82C98.8223 102.82 98.3123 103.35 98.1823 104.34H101.152C101.032 103.36 100.502 102.82 99.6723 102.82ZM103.245 107.5V100.3H104.125V107.5H103.245ZM107.68 107.62C106.16 107.62 105.25 106.58 105.25 104.85C105.25 103.05 106.19 102.06 107.68 102.06C109.2 102.06 110.11 103.12 110.11 104.85C110.11 106.64 109.17 107.62 107.68 107.62ZM107.68 106.86C108.67 106.86 109.21 106.15 109.21 104.85C109.21 103.56 108.66 102.82 107.68 102.82C106.69 102.82 106.15 103.54 106.15 104.85C106.15 106.13 106.7 106.86 107.68 106.86ZM112.133 109.7H111.253V102.19H112.133V102.85C112.483 102.35 112.993 102.06 113.623 102.06C115.033 102.06 115.883 103.1 115.883 104.83C115.883 106.63 115.013 107.62 113.623 107.62C112.993 107.62 112.483 107.36 112.133 106.87V109.7ZM113.563 102.82C112.633 102.82 112.133 103.53 112.133 104.83C112.133 106.12 112.653 106.86 113.563 106.86C114.483 106.86 114.983 106.14 114.983 104.83C114.983 103.55 114.463 102.82 113.563 102.82ZM117.014 107.5V102.19H117.894V102.87C118.234 102.33 118.764 102.06 119.414 102.06C120.144 102.06 120.674 102.38 120.924 103C121.274 102.38 121.854 102.06 122.564 102.06C123.644 102.06 124.294 102.72 124.294 103.95V107.5H123.414V104.13C123.414 103.33 123.094 102.81 122.374 102.81C121.574 102.81 121.094 103.6 121.094 104.36V107.5H120.214V104.13C120.214 103.33 119.894 102.81 119.174 102.81C118.374 102.81 117.894 103.6 117.894 104.36V107.5H117.014ZM130.286 105.77C129.996 107.01 129.106 107.62 127.896 107.62C126.356 107.62 125.426 106.58 125.426 104.85C125.426 103.05 126.356 102.06 127.846 102.06C129.346 102.06 130.246 103.09 130.246 104.78V105H126.326C126.376 106.19 126.936 106.86 127.896 106.86C128.646 106.86 129.176 106.5 129.366 105.77H130.286ZM127.846 102.82C126.996 102.82 126.486 103.35 126.356 104.34H129.326C129.206 103.36 128.676 102.82 127.846 102.82ZM131.419 107.5V102.19H132.299V102.91C132.659 102.35 133.239 102.06 133.939 102.06C135.069 102.06 135.739 102.72 135.739 103.95V107.5H134.859V104.13C134.859 103.33 134.499 102.81 133.699 102.81C132.819 102.81 132.299 103.6 132.299 104.36V107.5H131.419ZM137.261 105.97V102.89H136.521V102.19H137.261V100.97H138.141V102.19H139.311V102.89H138.141V105.97C138.141 106.61 138.331 106.91 139.111 106.91H139.291V107.54C139.191 107.59 138.971 107.62 138.721 107.62C137.731 107.62 137.261 107.09 137.261 105.97Z" fill="#B8B8B8"/>
</g>
<g filter="url(#filter4_d_2713_10494)">
<rect x="162" y="91.5" width="78" height="25" fill="url(#paint4_radial_2713_10494)" shape-rendering="crispEdges"/>
<rect x="162" y="91.5" width="78" height="25" stroke="#5B5B5B" stroke-linecap="round" stroke-linejoin="round" stroke-dasharray="4 4" shape-rendering="crispEdges"/>
<path d="M174.78 107.5V100.7H175.7V107.5H174.78ZM181.57 104.02H180.69C180.55 103.21 180.01 102.82 179.31 102.82C178.33 102.82 177.81 103.54 177.81 104.85C177.81 106.14 178.36 106.87 179.34 106.87C180.05 106.87 180.56 106.49 180.73 105.73H181.61C181.37 107.05 180.48 107.62 179.32 107.62C177.81 107.62 176.91 106.57 176.91 104.85C176.91 103.05 177.83 102.06 179.31 102.06C180.48 102.06 181.4 102.72 181.57 104.02ZM184.858 107.62C183.338 107.62 182.428 106.58 182.428 104.85C182.428 103.05 183.368 102.06 184.858 102.06C186.378 102.06 187.288 103.12 187.288 104.85C187.288 106.64 186.348 107.62 184.858 107.62ZM184.858 106.86C185.848 106.86 186.388 106.15 186.388 104.85C186.388 103.56 185.838 102.82 184.858 102.82C183.868 102.82 183.328 103.54 183.328 104.85C183.328 106.13 183.878 106.86 184.858 106.86ZM188.421 107.5V102.19H189.301V102.91C189.661 102.35 190.241 102.06 190.941 102.06C192.071 102.06 192.741 102.72 192.741 103.95V107.5H191.861V104.13C191.861 103.33 191.501 102.81 190.701 102.81C189.821 102.81 189.301 103.6 189.301 104.36V107.5H188.421ZM196.225 107.5V100.7H198.445C200.555 100.7 201.875 101.98 201.875 104.11C201.875 106.24 200.555 107.5 198.445 107.5H196.225ZM198.445 106.75C200.005 106.75 200.935 105.77 200.935 104.11C200.935 102.43 200.005 101.45 198.445 101.45H197.145V106.75H198.445ZM207.708 105.77C207.418 107.01 206.528 107.62 205.318 107.62C203.778 107.62 202.848 106.58 202.848 104.85C202.848 103.05 203.778 102.06 205.268 102.06C206.768 102.06 207.668 103.09 207.668 104.78V105H203.748C203.798 106.19 204.358 106.86 205.318 106.86C206.068 106.86 206.598 106.5 206.788 105.77H207.708ZM205.268 102.82C204.418 102.82 203.908 103.35 203.778 104.34H206.748C206.628 103.36 206.098 102.82 205.268 102.82ZM209.491 103.55C209.491 105.03 212.941 103.81 212.941 106C212.941 106.99 212.061 107.62 210.811 107.62C209.551 107.62 208.671 107.02 208.471 105.77H209.351C209.471 106.51 210.021 106.92 210.841 106.92C211.641 106.92 212.061 106.56 212.061 106.06C212.061 104.61 208.651 105.81 208.651 103.61C208.651 102.8 209.281 102.06 210.581 102.06C211.731 102.06 212.581 102.6 212.751 103.92H211.871C211.741 103.09 211.281 102.78 210.531 102.78C209.871 102.78 209.491 103.11 209.491 103.55ZM213.987 101.48V100.3H214.867V101.48H213.987ZM213.987 107.5V102.19H214.867V107.5H213.987ZM218.153 107.54C216.803 107.54 215.993 106.51 215.993 104.81C215.993 103.03 216.823 102.06 218.153 102.06C218.863 102.06 219.393 102.31 219.743 102.77V102.19H220.623V107.66C220.623 109.14 219.673 109.83 218.453 109.83C217.203 109.83 216.323 109.23 216.133 108.02H217.013C217.123 108.72 217.673 109.1 218.443 109.1C219.223 109.1 219.743 108.68 219.743 107.69V106.78C219.373 107.28 218.833 107.54 218.153 107.54ZM218.313 106.78C219.243 106.78 219.743 106.08 219.743 104.8C219.743 103.55 219.223 102.82 218.313 102.82C217.393 102.82 216.893 103.52 216.893 104.81C216.893 106.06 217.403 106.78 218.313 106.78ZM222.034 107.5V102.19H222.914V102.91C223.274 102.35 223.854 102.06 224.554 102.06C225.684 102.06 226.354 102.72 226.354 103.95V107.5H225.474V104.13C225.474 103.33 225.114 102.81 224.314 102.81C223.434 102.81 222.914 103.6 222.914 104.36V107.5H222.034Z" fill="#B8B8B8"/>
</g>
<g filter="url(#filter5_d_2713_10494)">
<rect x="250" y="91.5" width="93" height="25" fill="url(#paint5_radial_2713_10494)" shape-rendering="crispEdges"/>
<rect x="250" y="91.5" width="93" height="25" stroke="#5B5B5B" stroke-linecap="round" stroke-linejoin="round" stroke-dasharray="4 4" shape-rendering="crispEdges"/>
<path d="M262.78 107.5V100.7H265.11C266.65 100.7 267.62 101.52 267.62 102.85C267.62 104.22 266.64 105.02 265.12 105.02H263.7V107.5H262.78ZM265.1 101.45H263.7V104.27H265.07C266.08 104.27 266.67 103.73 266.67 102.86C266.67 102 266.07 101.45 265.1 101.45ZM268.716 107.5V102.19H269.596V103.01C269.956 102.36 270.526 102.06 271.166 102.06C271.376 102.06 271.566 102.11 271.666 102.19V102.98C271.516 102.93 271.326 102.91 271.116 102.91C270.056 102.91 269.596 103.57 269.596 104.53V107.5H268.716ZM274.508 107.62C272.988 107.62 272.078 106.58 272.078 104.85C272.078 103.05 273.018 102.06 274.508 102.06C276.028 102.06 276.938 103.12 276.938 104.85C276.938 106.64 275.998 107.62 274.508 107.62ZM274.508 106.86C275.498 106.86 276.038 106.15 276.038 104.85C276.038 103.56 275.488 102.82 274.508 102.82C273.518 102.82 272.978 103.54 272.978 104.85C272.978 106.13 273.528 106.86 274.508 106.86ZM280.061 107.62C278.651 107.62 277.801 106.58 277.801 104.85C277.801 103.05 278.671 102.06 280.061 102.06C280.691 102.06 281.201 102.32 281.551 102.81V100.3H282.431V107.5H281.551V106.83C281.201 107.33 280.691 107.62 280.061 107.62ZM280.121 106.86C281.051 106.86 281.551 106.15 281.551 104.85C281.551 103.56 281.031 102.82 280.121 102.82C279.201 102.82 278.701 103.54 278.701 104.85C278.701 106.13 279.221 106.86 280.121 106.86ZM287.213 105.33V102.19H288.093V107.5H287.213V106.78C286.853 107.34 286.293 107.62 285.603 107.62C284.493 107.62 283.833 106.97 283.833 105.74V102.19H284.713V105.56C284.713 106.36 285.063 106.87 285.843 106.87C286.703 106.87 287.213 106.09 287.213 105.33ZM293.887 104.02H293.007C292.867 103.21 292.327 102.82 291.627 102.82C290.647 102.82 290.127 103.54 290.127 104.85C290.127 106.14 290.677 106.87 291.657 106.87C292.367 106.87 292.877 106.49 293.047 105.73H293.927C293.687 107.05 292.797 107.62 291.637 107.62C290.127 107.62 289.227 106.57 289.227 104.85C289.227 103.05 290.147 102.06 291.627 102.06C292.797 102.06 293.717 102.72 293.887 104.02ZM295.134 105.97V102.89H294.394V102.19H295.134V100.97H296.014V102.19H297.184V102.89H296.014V105.97C296.014 106.61 296.204 106.91 296.984 106.91H297.164V107.54C297.064 107.59 296.844 107.62 296.594 107.62C295.604 107.62 295.134 107.09 295.134 105.97ZM300.104 107.5V100.7H302.324C304.434 100.7 305.754 101.98 305.754 104.11C305.754 106.24 304.434 107.5 302.324 107.5H300.104ZM302.324 106.75C303.884 106.75 304.814 105.77 304.814 104.11C304.814 102.43 303.884 101.45 302.324 101.45H301.024V106.75H302.324ZM311.587 105.77C311.297 107.01 310.407 107.62 309.197 107.62C307.657 107.62 306.727 106.58 306.727 104.85C306.727 103.05 307.657 102.06 309.147 102.06C310.647 102.06 311.547 103.09 311.547 104.78V105H307.627C307.677 106.19 308.237 106.86 309.197 106.86C309.947 106.86 310.477 106.5 310.667 105.77H311.587ZM309.147 102.82C308.297 102.82 307.787 103.35 307.657 104.34H310.627C310.507 103.36 309.977 102.82 309.147 102.82ZM313.37 103.55C313.37 105.03 316.82 103.81 316.82 106C316.82 106.99 315.94 107.62 314.69 107.62C313.43 107.62 312.55 107.02 312.35 105.77H313.23C313.35 106.51 313.9 106.92 314.72 106.92C315.52 106.92 315.94 106.56 315.94 106.06C315.94 104.61 312.53 105.81 312.53 103.61C312.53 102.8 313.16 102.06 314.46 102.06C315.61 102.06 316.46 102.6 316.63 103.92H315.75C315.62 103.09 315.16 102.78 314.41 102.78C313.75 102.78 313.37 103.11 313.37 103.55ZM317.866 101.48V100.3H318.746V101.48H317.866ZM317.866 107.5V102.19H318.746V107.5H317.866ZM322.031 107.54C320.681 107.54 319.871 106.51 319.871 104.81C319.871 103.03 320.701 102.06 322.031 102.06C322.741 102.06 323.271 102.31 323.621 102.77V102.19H324.501V107.66C324.501 109.14 323.551 109.83 322.331 109.83C321.081 109.83 320.201 109.23 320.011 108.02H320.891C321.001 108.72 321.551 109.1 322.321 109.1C323.101 109.1 323.621 108.68 323.621 107.69V106.78C323.251 107.28 322.711 107.54 322.031 107.54ZM322.191 106.78C323.121 106.78 323.621 106.08 323.621 104.8C323.621 103.55 323.101 102.82 322.191 102.82C321.271 102.82 320.771 103.52 320.771 104.81C320.771 106.06 321.281 106.78 322.191 106.78ZM325.913 107.5V102.19H326.793V102.91C327.153 102.35 327.733 102.06 328.433 102.06C329.563 102.06 330.233 102.72 330.233 103.95V107.5H329.353V104.13C329.353 103.33 328.993 102.81 328.193 102.81C327.313 102.81 326.793 103.6 326.793 104.36V107.5H325.913Z" fill="#B8B8B8"/>
</g>
<defs>
<filter id="filter0_d_2713_10494" x="-22.5" y="0" width="218" height="134" filterUnits="userSpaceOnUse" color-interpolation-filters="sRGB">
<feFlood flood-opacity="0" result="BackgroundImageFix"/>
<feColorMatrix in="SourceAlpha" type="matrix" values="0 0 0 0 0 0 0 0 0 0 0 0 0 0 0 0 0 0 127 0" result="hardAlpha"/>
<feOffset dy="4"/>
<feGaussianBlur stdDeviation="27"/>
<feComposite in2="hardAlpha" operator="out"/>
<feColorMatrix type="matrix" values="0 0 0 0 0 0 0 0 0 0 0 0 0 0 0 0 0 0 0.15 0"/>
<feBlend mode="normal" in2="BackgroundImageFix" result="effect1_dropShadow_2713_10494"/>
<feBlend mode="normal" in="SourceGraphic" in2="effect1_dropShadow_2713_10494" result="shape"/>
</filter>
<filter id="filter1_d_2713_10494" x="96.5" y="0" width="193" height="134" filterUnits="userSpaceOnUse" color-interpolation-filters="sRGB">
<feFlood flood-opacity="0" result="BackgroundImageFix"/>
<feColorMatrix in="SourceAlpha" type="matrix" values="0 0 0 0 0 0 0 0 0 0 0 0 0 0 0 0 0 0 127 0" result="hardAlpha"/>
<feOffset dy="4"/>
<feGaussianBlur stdDeviation="27"/>
<feComposite in2="hardAlpha" operator="out"/>
<feColorMatrix type="matrix" values="0 0 0 0 0 0 0 0 0 0 0 0 0 0 0 0 0 0 0.15 0"/>
<feBlend mode="normal" in2="BackgroundImageFix" result="effect1_dropShadow_2713_10494"/>
<feBlend mode="normal" in="SourceGraphic" in2="effect1_dropShadow_2713_10494" result="shape"/>
</filter>
<filter id="filter2_d_2713_10494" x="190.5" y="0" width="196" height="134" filterUnits="userSpaceOnUse" color-interpolation-filters="sRGB">
<feFlood flood-opacity="0" result="BackgroundImageFix"/>
<feColorMatrix in="SourceAlpha" type="matrix" values="0 0 0 0 0 0 0 0 0 0 0 0 0 0 0 0 0 0 127 0" result="hardAlpha"/>
<feOffset dy="4"/>
<feGaussianBlur stdDeviation="27"/>
<feComposite in2="hardAlpha" operator="out"/>
<feColorMatrix type="matrix" values="0 0 0 0 0 0 0 0 0 0 0 0 0 0 0 0 0 0 0.15 0"/>
<feBlend mode="normal" in2="BackgroundImageFix" result="effect1_dropShadow_2713_10494"/>
<feBlend mode="normal" in="SourceGraphic" in2="effect1_dropShadow_2713_10494" result="shape"/>
</filter>
<filter id="filter3_d_2713_10494" x="-22.5" y="41" width="229" height="134" filterUnits="userSpaceOnUse" color-interpolation-filters="sRGB">
<feFlood flood-opacity="0" result="BackgroundImageFix"/>
<feColorMatrix in="SourceAlpha" type="matrix" values="0 0 0 0 0 0 0 0 0 0 0 0 0 0 0 0 0 0 127 0" result="hardAlpha"/>
<feOffset dy="4"/>
<feGaussianBlur stdDeviation="27"/>
<feComposite in2="hardAlpha" operator="out"/>
<feColorMatrix type="matrix" values="0 0 0 0 0 0 0 0 0 0 0 0 0 0 0 0 0 0 0.15 0"/>
<feBlend mode="normal" in2="BackgroundImageFix" result="effect1_dropShadow_2713_10494"/>
<feBlend mode="normal" in="SourceGraphic" in2="effect1_dropShadow_2713_10494" result="shape"/>
</filter>
<filter id="filter4_d_2713_10494" x="107.5" y="41" width="187" height="134" filterUnits="userSpaceOnUse" color-interpolation-filters="sRGB">
<feFlood flood-opacity="0" result="BackgroundImageFix"/>
<feColorMatrix in="SourceAlpha" type="matrix" values="0 0 0 0 0 0 0 0 0 0 0 0 0 0 0 0 0 0 127 0" result="hardAlpha"/>
<feOffset dy="4"/>
<feGaussianBlur stdDeviation="27"/>
<feComposite in2="hardAlpha" operator="out"/>
<feColorMatrix type="matrix" values="0 0 0 0 0 0 0 0 0 0 0 0 0 0 0 0 0 0 0.15 0"/>
<feBlend mode="normal" in2="BackgroundImageFix" result="effect1_dropShadow_2713_10494"/>
<feBlend mode="normal" in="SourceGraphic" in2="effect1_dropShadow_2713_10494" result="shape"/>
</filter>
<filter id="filter5_d_2713_10494" x="195.5" y="41" width="202" height="134" filterUnits="userSpaceOnUse" color-interpolation-filters="sRGB">
<feFlood flood-opacity="0" result="BackgroundImageFix"/>
<feColorMatrix in="SourceAlpha" type="matrix" values="0 0 0 0 0 0 0 0 0 0 0 0 0 0 0 0 0 0 127 0" result="hardAlpha"/>
<feOffset dy="4"/>
<feGaussianBlur stdDeviation="27"/>
<feComposite in2="hardAlpha" operator="out"/>
<feColorMatrix type="matrix" values="0 0 0 0 0 0 0 0 0 0 0 0 0 0 0 0 0 0 0.15 0"/>
<feBlend mode="normal" in2="BackgroundImageFix" result="effect1_dropShadow_2713_10494"/>
<feBlend mode="normal" in="SourceGraphic" in2="effect1_dropShadow_2713_10494" result="shape"/>
</filter>
<radialGradient id="paint0_radial_2713_10494" cx="0" cy="0" r="1" gradientTransform="matrix(54.5 9.62953 -1.82225 12.5 86.5 63)" gradientUnits="userSpaceOnUse">
<stop stop-color="#2B2B2B"/>
<stop offset="1" stop-color="#343434"/>
</radialGradient>
<radialGradient id="paint1_radial_2713_10494" cx="0" cy="0" r="1" gradientTransform="matrix(42 9.62953 -1.40431 12.5 193 63)" gradientUnits="userSpaceOnUse">
<stop stop-color="#2B2B2B"/>
<stop offset="1" stop-color="#343434"/>
</radialGradient>
<radialGradient id="paint2_radial_2713_10494" cx="0" cy="0" r="1" gradientTransform="matrix(43.5 9.62953 -1.45446 12.5 288.5 63)" gradientUnits="userSpaceOnUse">
<stop stop-color="#2B2B2B"/>
<stop offset="1" stop-color="#343434"/>
</radialGradient>
<radialGradient id="paint3_radial_2713_10494" cx="0" cy="0" r="1" gradientUnits="userSpaceOnUse" gradientTransform="translate(92 104) rotate(9.11777) scale(60.7678 12.66)">
<stop stop-color="#2B2B2B"/>
<stop offset="1" stop-color="#343434"/>
</radialGradient>
<radialGradient id="paint4_radial_2713_10494" cx="0" cy="0" r="1" gradientTransform="matrix(39 9.62953 -1.304 12.5 201 104)" gradientUnits="userSpaceOnUse">
<stop stop-color="#2B2B2B"/>
<stop offset="1" stop-color="#343434"/>
</radialGradient>
<radialGradient id="paint5_radial_2713_10494" cx="0" cy="0" r="1" gradientTransform="matrix(46.5 9.62953 -1.55477 12.5 296.5 104)" gradientUnits="userSpaceOnUse">
<stop stop-color="#2B2B2B"/>
<stop offset="1" stop-color="#343434"/>
</radialGradient>
</defs>
</svg>
